<svg xmlns="http://www.w3.org/2000/svg" viewBox="0 0 21 23" width="21" height="23">
	<style>
		tspan { white-space:pre }
		.shp0 { fill: #000000 } 
	</style>
	<g id="Header">
		<g id="notification">
			<path id="Forma 1" class="shp0" d="M10.5 15.63C7.01 15.63 3.29 16.57 3.29 18.31C3.29 20.06 7.01 21 10.5 21C14 21 17.72 20.06 17.72 18.31C17.72 16.57 14 15.63 10.5 15.63ZM10.5 16.36C10.88 16.36 11.25 16.38 11.6 16.39C11.59 16.42 11.58 16.45 11.58 16.48C11.58 17.24 10.99 17.86 10.27 17.86C9.54 17.86 8.95 17.24 8.95 16.48C8.95 16.46 8.94 16.44 8.94 16.42C9.43 16.39 9.95 16.36 10.5 16.36ZM10.5 20.26C6.47 20.26 3.99 19.13 3.99 18.31C3.99 17.66 5.59 16.8 8.3 16.49C8.3 17.62 9.18 18.54 10.27 18.54C11.35 18.54 12.23 17.62 12.23 16.48C12.23 16.46 12.23 16.45 12.23 16.44C15.23 16.7 17.02 17.62 17.02 18.31C17.02 19.13 14.54 20.26 10.5 20.26ZM18.93 17.2L16.79 14.4C16.13 13.55 15.85 12.44 16.03 11.36L16.09 10.97C16.34 9.42 15.93 7.84 14.96 6.63C14.23 5.72 13.23 5.1 12.14 4.86L12.14 3.7C12.14 2.76 11.41 2 10.49 2C9.6 2 8.87 2.76 8.87 3.7L8.87 4.86C7.78 5.1 6.78 5.72 6.05 6.63C5.08 7.84 4.66 9.42 4.92 10.97L4.98 11.36C5.15 12.44 4.88 13.55 4.22 14.4L2.08 17.2C1.97 17.35 1.99 17.56 2.13 17.68C2.27 17.8 2.47 17.78 2.59 17.63L4.73 14.83C5.51 13.83 5.83 12.52 5.62 11.25L5.56 10.86C5.34 9.5 5.7 8.12 6.55 7.07C7.39 6.03 8.63 5.42 9.94 5.42L11.07 5.42C12.38 5.42 13.62 6.03 14.46 7.07C15.31 8.12 15.67 9.5 15.45 10.86L15.38 11.25C15.18 12.52 15.5 13.83 16.28 14.83L18.42 17.63C18.49 17.71 18.58 17.76 18.68 17.76C18.75 17.76 18.82 17.73 18.88 17.68C19.02 17.56 19.04 17.35 18.93 17.2ZM11.48 4.74L9.52 4.74L9.52 3.7C9.52 3.14 9.96 2.68 10.52 2.68C11.05 2.68 11.48 3.14 11.48 3.7L11.48 4.74Z" />
		</g>
	</g>
</svg>