<svg 
 xmlns="http://www.w3.org/2000/svg"
 xmlns:xlink="http://www.w3.org/1999/xlink"
 width="17px" height="14px">
<path fill-rule="evenodd"  fill="rgb(0, 0, 0)"
 d="M16.434,2.916 L8.555,2.916 C8.242,2.916 7.989,2.711 7.989,2.458 C7.989,2.204 8.242,1.999 8.555,1.999 L16.434,1.999 C16.747,1.999 17.000,2.204 17.000,2.458 C17.000,2.711 16.747,2.916 16.434,2.916 ZM3.002,13.984 C1.350,13.984 -0.000,12.754 -0.000,11.237 C-0.000,9.721 1.344,8.491 3.002,8.491 C4.660,8.491 6.004,9.726 6.004,11.237 C6.004,12.749 4.660,13.984 3.002,13.984 ZM3.002,9.768 C2.119,9.768 1.396,10.424 1.396,11.237 C1.396,12.051 2.119,12.707 3.002,12.707 C3.885,12.707 4.609,12.045 4.609,11.237 C4.609,10.430 3.891,9.768 3.002,9.768 ZM3.002,5.499 C1.350,5.499 -0.000,4.258 -0.000,2.747 C-0.000,1.235 1.344,-0.000 3.002,-0.000 C4.660,-0.000 6.004,1.240 6.004,2.752 C6.004,4.264 4.660,5.499 3.002,5.499 ZM3.002,1.277 C2.119,1.277 1.396,1.939 1.396,2.747 C1.396,3.555 2.119,4.217 3.002,4.217 C3.885,4.217 4.609,3.555 4.609,2.747 C4.609,1.939 3.891,1.277 3.002,1.277 ZM8.555,11.072 L16.434,11.072 C16.747,11.072 17.000,11.278 17.000,11.531 C17.000,11.785 16.747,11.990 16.434,11.990 L8.555,11.990 C8.242,11.990 7.989,11.785 7.989,11.531 C7.989,11.278 8.242,11.072 8.555,11.072 Z"/>
</svg>