<svg 
 xmlns="http://www.w3.org/2000/svg"
 xmlns:xlink="http://www.w3.org/1999/xlink"
 width="15px" height="14px">
<path fill-rule="evenodd"  fill="rgb(0, 0, 0)"
 d="M12.002,5.499 C10.350,5.499 9.000,4.258 9.000,2.747 C9.000,1.235 10.344,-0.000 12.002,-0.000 C13.660,-0.000 15.004,1.240 15.004,2.752 C15.004,4.264 13.660,5.499 12.002,5.499 ZM12.002,1.277 C11.119,1.277 10.396,1.939 10.396,2.747 C10.396,3.555 11.119,4.217 12.002,4.217 C12.885,4.217 13.609,3.555 13.609,2.747 C13.609,1.939 12.891,1.277 12.002,1.277 ZM3.002,13.984 C1.350,13.984 -0.000,12.754 -0.000,11.237 C-0.000,9.721 1.344,8.491 3.002,8.491 C4.660,8.491 6.004,9.726 6.004,11.237 C6.004,12.749 4.660,13.984 3.002,13.984 ZM3.002,9.768 C2.119,9.768 1.396,10.424 1.396,11.237 C1.396,12.051 2.119,12.707 3.002,12.707 C3.885,12.707 4.609,12.045 4.609,11.237 C4.609,10.430 3.891,9.768 3.002,9.768 ZM3.002,5.499 C1.350,5.499 -0.000,4.258 -0.000,2.747 C-0.000,1.235 1.344,-0.000 3.002,-0.000 C4.660,-0.000 6.004,1.240 6.004,2.752 C6.004,4.264 4.660,5.499 3.002,5.499 ZM3.002,1.277 C2.119,1.277 1.396,1.939 1.396,2.747 C1.396,3.555 2.119,4.217 3.002,4.217 C3.885,4.217 4.609,3.555 4.609,2.747 C4.609,1.939 3.891,1.277 3.002,1.277 ZM12.002,8.491 C13.660,8.491 15.004,9.726 15.004,11.237 C15.004,12.749 13.660,13.984 12.002,13.984 C10.350,13.984 9.000,12.754 9.000,11.237 C9.000,9.721 10.344,8.491 12.002,8.491 ZM12.002,12.707 C12.885,12.707 13.609,12.045 13.609,11.237 C13.609,10.430 12.891,9.768 12.002,9.768 C11.119,9.768 10.396,10.424 10.396,11.237 C10.396,12.051 11.119,12.707 12.002,12.707 Z"/>
</svg>