<svg xmlns="http://www.w3.org/2000/svg" width="20" height="15" viewBox="0 0 20 15"><path d="M238.8,519.493a.412.412,0,0,1-.4.421h-.963v1.009a.4.4,0,1,1-.8,0v-1.009h-.963a.422.422,0,0,1,0-.842h.963v-1.009a.4.4,0,1,1,.8,0v1.009h.963A.412.412,0,0,1,238.8,519.493Zm2.441-.421h-.157a.422.422,0,0,0,0,.842h.157a.422.422,0,0,0,0-.842Zm6.844,4.721a.4.4,0,0,0-.5-.291.424.424,0,0,0-.278.52,9.786,9.786,0,0,0,1.225,2.4.4.4,0,0,0,.33.18.389.389,0,0,0,.23-.076.434.434,0,0,0,.1-.586A8.964,8.964,0,0,1,248.083,523.792Zm-11.669-.291a.4.4,0,0,0-.5.291,8.965,8.965,0,0,1-1.11,2.145.434.434,0,0,0,.1.586.388.388,0,0,0,.23.076.4.4,0,0,0,.33-.18,9.791,9.791,0,0,0,1.225-2.4A.424.424,0,0,0,236.413,523.5Zm6.5-4.43h-.157a.422.422,0,0,0,0,.842h.157a.422.422,0,0,0,0-.842Zm4.075,2.247a1.828,1.828,0,1,1,1.743-1.826A1.788,1.788,0,0,1,246.992,521.319Zm.939-1.826a.94.94,0,1,0-.939.984A.963.963,0,0,0,247.932,519.493Zm-6.688,4.95c-2.163.009-2.2.072-3.145,1.668-1.06,1.791-1.817,2.889-3.929,2.889a2.078,2.078,0,0,1-1.619-.754,2.529,2.529,0,0,1-.528-1.942l.868-6.894c.5-3.965,2.348-4.8,4.382-4.909a.429.429,0,0,1-.007-.081.412.412,0,0,1,.4-.421h1.171a.412.412,0,0,1,.4.421.465.465,0,0,1,0,.066h5.53a.449.449,0,0,1,0-.066.412.412,0,0,1,.4-.421h1.171a.412.412,0,0,1,.4.421.445.445,0,0,1-.007.081c2.033.112,3.883.944,4.382,4.909l.868,6.894a2.53,2.53,0,0,1-.528,1.942,2.078,2.078,0,0,1-1.62.754c-2.112,0-2.869-1.1-3.929-2.889-.944-1.595-.981-1.657-3.115-1.668Zm1.546-.842c2.436.012,2.717.245,3.8,2.066,1.022,1.727,1.546,2.491,3.246,2.491a1.3,1.3,0,0,0,1.015-.467,1.64,1.64,0,0,0,.336-1.276l-.868-6.894a5.067,5.067,0,0,0-1.525-3.52,4.179,4.179,0,0,0-2.62-.671h-8.335a4.178,4.178,0,0,0-2.62.671,5.067,5.067,0,0,0-1.525,3.52l-.868,6.894a1.639,1.639,0,0,0,.336,1.276,1.3,1.3,0,0,0,1.015.467c1.7,0,2.224-.764,3.246-2.491,1.079-1.823,1.362-2.056,3.825-2.066Z" transform="translate(-232 -514)"/></svg>