<svg xmlns="http://www.w3.org/2000/svg" width="19" height="16" viewBox="0 0 19 16"><path d="M251.655,654h-18.31a.346.346,0,0,0-.345.348v15.3a.346.346,0,0,0,.345.348h18.31a.346.346,0,0,0,.345-.348v-15.3A.346.346,0,0,0,251.655,654Zm-.345,7.652h-2.759v-3.13h2.759Zm-3.448-3.478v3.478H237.138V654.7h10.724Zm-11.414,3.478h-2.759v-3.13h2.759Zm-2.759.7h2.759v3.13h-2.759Zm3.448,3.478v-3.478h10.724V669.3H237.138Zm11.414-3.478h2.759v3.13h-2.759Zm2.759-7.652v3.13h-2.759V654.7Zm-17.621,0h2.759v3.13h-2.759Zm0,14.609v-3.13h2.759v3.13Zm17.621,0h-2.759v-3.13h2.759Z" transform="translate(-233 -654)"/></svg>